<svg xmlns="http://www.w3.org/2000/svg" viewBox="0 0 20 20.01"><g id="Layer_2" data-name="Layer 2"><g id="Layer_1-2" data-name="Layer 1"><path d="M18.73,20,14,19.63l-3.35-.25c-.53,0-1.06-.07-1.58-.14a.85.85,0,0,1-.82-.84A.91.91,0,0,1,9,17.48l2.31-.61c.75-.19.75-.19.26-.79L.31,2A1.19,1.19,0,0,1,1,0,1.2,1.2,0,0,1,2,.34L5.51,3.18l10.81,8.64c.33.26.33.26.43-.14L17.47,9a.85.85,0,0,1,.75-.69.88.88,0,0,1,1,.83c.11,1.39.2,2.79.31,4.18l.36,4.4c0,.41.07.81.09,1.21,0,.81-.28,1.11-1.08,1.06h-.19Z"/></g></g></svg>