<svg xmlns="http://www.w3.org/2000/svg" viewBox="0 0 20 20"><g id="Layer_2" data-name="Layer 2"><g id="Layer_1-2" data-name="Layer 1"><path d="M8.59,0c.32.05.65.08,1,.15a7.82,7.82,0,0,1,6.3,6,7.69,7.69,0,0,1-1.32,6.64l-.1.15s0,0,0,.08a.64.64,0,0,1,.17.13q2.55,2.54,5.08,5.08a1,1,0,0,1-1.25,1.55,1.55,1.55,0,0,1-.23-.21l-5-5L13,14.4a8.24,8.24,0,0,1-1.78,1,8,8,0,0,1-11-5.86c-.07-.33-.11-.66-.16-1V7.5c.05-.33.09-.67.15-1A8,8,0,0,1,6.31.2C6.72.11,7.13.06,7.54,0ZM14.1,8.05A6.06,6.06,0,1,0,8,14.1,6.06,6.06,0,0,0,14.1,8.05Z"/></g></g></svg>