<svg xmlns="http://www.w3.org/2000/svg" viewBox="0 0 20 13.47"><g id="Layer_2" data-name="Layer 2"><g id="Layer_1-2" data-name="Layer 1"><path d="M20,13.38a.46.46,0,0,1-.19.08H15.67c.06-.4.13-.81.17-1.22a6.72,6.72,0,0,0-.07-2c0-.27,0-.28.23-.36L19.13,9c.18-.06.27,0,.33.17a12.12,12.12,0,0,1,.5,2.66c0,.07,0,.13,0,.2Z"/><path d="M8.57,13.35a1.66,1.66,0,0,1-1.44-2.44c.51-1.06,1-2.11,1.55-3.17L12.31.32,12.37.2c.07-.16.19-.24.35-.18s.21.2.17.37c-.24,1-.47,2.06-.71,3.1L10.23,12A1.66,1.66,0,0,1,8.57,13.35Zm.08-.88a.81.81,0,0,0,.81-.82.82.82,0,0,0-.81-.8.81.81,0,1,0,0,1.62Z"/><path d="M19,7.94a.67.67,0,0,1-.14.11L15.74,9.3c-.18.07-.21-.05-.25-.16A7.22,7.22,0,0,0,14.4,7c-.24-.31-.5-.6-.75-.89-.1-.1-.11-.17,0-.28l1.73-2.1c.1-.12.18-.13.3,0a11,11,0,0,1,3.25,4.09S18.94,7.88,19,7.94Z"/><path d="M8.5,3.4c0,.57,0,.52-.34.53a7.69,7.69,0,0,0-3.51,1c-.17.1-.25.08-.36-.08-.22-.35-.46-.7-.7-1-.11-.15-.11-.24.05-.36A10,10,0,0,1,8.18,1.62c.15,0,.21,0,.22.19C8.43,2.39,8.48,3,8.5,3.4Z"/><path d="M0,8.4c.12-.3.22-.57.33-.83a9.88,9.88,0,0,1,2.2-3.21c.19-.19.21-.19.38,0s.49.58.75.87c.1.12.11.2,0,.3A8.61,8.61,0,0,0,1.08,8.68C1,8.82.93,8.86.79,8.8L.15,8.54A.66.66,0,0,1,0,8.4Z"/><path d="M13,2.2,14.52,3a.23.23,0,0,1,0,.21c-.48.75-1,1.5-1.46,2.24a.14.14,0,0,1-.23,0l-.19-.15c-.31-.22-.31-.22-.22-.58L13,2.35Z"/><path d="M11.06,1.65,9.87,4.08c-.16,0-.33,0-.49-.08a.24.24,0,0,1-.12-.17c0-.7.06-1.41.1-2.11,0-.06.09-.16.13-.16Z"/></g></g></svg>