<?xml version="1.0" encoding="utf-8"?>
<!-- Generator: Adobe Illustrator 25.0.0, SVG Export Plug-In . SVG Version: 6.00 Build 0)  -->
<svg version="1.1" id="Layer_1" xmlns="http://www.w3.org/2000/svg" xmlns:xlink="http://www.w3.org/1999/xlink" x="0px" y="0px"
	 viewBox="0 0 56 56" style="enable-background:new 0 0 56 56;" xml:space="preserve">
<style type="text/css">
	.st0{clip-path:url(#SVGID_2_);}
</style>
<g>
	<g>
		<defs>
			<rect id="SVGID_1_" width="56" height="56"/>
		</defs>
		<clipPath id="SVGID_2_">
			<use xlink:href="#SVGID_1_"  style="overflow:visible;"/>
		</clipPath>
		<path class="st0" d="M33,9.68c4.88,1.24,9.02,4.46,11.42,8.88c2.62,4.34,3.3,9.57,1.9,14.44c-1.3,4.84-4.46,8.97-8.81,11.47
			c-4.35,2.5-9.51,3.16-14.35,1.85c-4.88-1.23-9.05-4.37-11.58-8.72c-2.6-4.34-3.29-9.58-1.9-14.44c1.23-4.92,4.45-9.11,8.88-11.58
			C22.9,8.96,28.13,8.27,33,9.68L33,9.68z M26.33,1.75C26.34,0.79,27.12,0,28.08,0c0.91,0.08,1.6,0.84,1.59,1.75v2.69
			C29.6,5.28,28.92,5.95,28.08,6c-0.91,0.01-1.67-0.68-1.75-1.59V1.75z M13.48,6c-0.23-0.36-0.3-0.79-0.2-1.2
			c0.1-0.41,0.36-0.77,0.72-0.99c0.84-0.45,1.88-0.18,2.38,0.63l1.27,2.22C18.08,7.49,17.79,8.51,17,9
			c-0.38,0.22-0.82,0.28-1.25,0.16c-0.42-0.12-0.77-0.4-0.97-0.79L13.48,6z M4.48,16.31C3.7,15.83,3.41,14.83,3.81,14
			c0.22-0.36,0.57-0.63,0.99-0.72c0.41-0.1,0.84-0.02,1.2,0.2l2.38,1.27c0.39,0.21,0.68,0.57,0.8,0.99C9.29,16.17,9.23,16.62,9,17
			c-0.5,0.81-1.54,1.09-2.38,0.64L4.48,16.31z M1.75,29.67C0.84,29.68,0.08,28.98,0,28.08c0-0.96,0.79-1.74,1.75-1.75h2.69
			c0.89,0.09,1.57,0.85,1.56,1.75c-0.06,0.86-0.74,1.53-1.59,1.59H1.75z M6.03,42.67c-0.38,0.21-0.84,0.27-1.25,0.14
			C4.36,42.68,4.01,42.39,3.81,42c-0.45-0.84-0.18-1.88,0.63-2.38l2.22-1.27C7.49,37.92,8.51,38.21,9,39
			c0.22,0.38,0.28,0.82,0.16,1.25c-0.12,0.42-0.4,0.77-0.79,0.97L6.03,42.67z M16.34,51.67c-0.54,0.77-1.59,0.98-2.38,0.47
			c-0.35-0.22-0.6-0.57-0.69-0.97c-0.09-0.4-0.01-0.82,0.21-1.17l1.27-2.38c0.51-0.73,1.5-0.93,2.25-0.46
			c0.75,0.46,1.02,1.43,0.61,2.21L16.34,51.67z M29.67,54.36c-0.04,0.87-0.72,1.58-1.59,1.64c-0.91,0.01-1.67-0.68-1.75-1.59v-2.69
			c0.02-0.95,0.8-1.72,1.75-1.72c0.91,0.08,1.6,0.84,1.59,1.75V54.36z M42.67,49.92c0.25,0.38,0.31,0.85,0.18,1.29
			c-0.13,0.44-0.44,0.8-0.86,0.98c-0.79,0.51-1.84,0.3-2.38-0.47l-1.27-2.38c-0.41-0.79-0.15-1.75,0.61-2.22
			c0.75-0.46,1.74-0.26,2.25,0.46L42.67,49.92z M51.67,39.61c0.79,0.52,1.02,1.59,0.52,2.39c-0.19,0.4-0.55,0.69-0.97,0.8
			c-0.42,0.12-0.87,0.06-1.25-0.18l-2.38-1.42c-0.72-0.51-0.93-1.5-0.46-2.25c0.46-0.76,1.43-1.02,2.21-0.61L51.67,39.61z
			 M54.36,26.28c0.95,0.05,1.68,0.85,1.64,1.8c-0.06,0.86-0.74,1.53-1.59,1.59h-2.69c-0.89-0.01-1.64-0.7-1.72-1.59
			c0-0.96,0.79-1.74,1.75-1.75L54.36,26.28z M50,13.48c0.35-0.25,0.79-0.34,1.22-0.25c0.42,0.09,0.79,0.36,1,0.73
			c0.51,0.79,0.3,1.84-0.47,2.38l-2.38,1.27c-0.79,0.41-1.75,0.14-2.21-0.61c-0.46-0.75-0.26-1.74,0.47-2.25L50,13.48z M39.69,4.48
			C40.17,3.7,41.17,3.41,42,3.81c0.38,0.2,0.67,0.54,0.8,0.96c0.12,0.41,0.08,0.86-0.12,1.23l-1.42,2.38
			c-0.21,0.39-0.57,0.68-0.99,0.8C39.83,9.29,39.38,9.23,39,9c-0.81-0.5-1.09-1.54-0.64-2.38L39.69,4.48z M39.69,4.48"/>
	</g>
</g>
</svg>
