<?xml version="1.0" encoding="utf-8"?>
<!-- Generator: Adobe Illustrator 25.0.0, SVG Export Plug-In . SVG Version: 6.00 Build 0)  -->
<svg version="1.1" id="Layer_1" xmlns="http://www.w3.org/2000/svg" xmlns:xlink="http://www.w3.org/1999/xlink" x="0px" y="0px"
	 viewBox="0 0 56 34" style="enable-background:new 0 0 56 34;" xml:space="preserve">
<style type="text/css">
	.st0{clip-path:url(#SVGID_2_);}
</style>
<g>
	<g>
		<defs>
			<rect id="SVGID_1_" x="0" width="56" height="34"/>
		</defs>
		<clipPath id="SVGID_2_">
			<use xlink:href="#SVGID_1_"  style="overflow:visible;"/>
		</clipPath>
		<path class="st0" d="M29.61,2.38c2.23,0.89,4.26,2.2,6,3.84c2.04,2.08,3.53,4.63,4.33,7.43c0.76,0,1.51,0.13,2.23,0.38
			c0.77,0.13,1.53,0.38,2.23,0.74c2.59,1.17,4.58,3.37,5.46,6.07c0.95,2.68,0.77,5.63-0.5,8.18c-0.14,0.32-0.41,0.56-0.73,0.68
			c-0.33,0.12-0.69,0.1-1-0.06C47,29.31,46.73,28.55,47,27.9c0.98-1.92,1.11-4.16,0.37-6.19c-0.72-2-2.19-3.65-4.09-4.59
			c-0.56-0.26-1.14-0.46-1.74-0.62c-0.32-0.1-0.66-0.14-1-0.12c0.11,0.74,0.15,1.48,0.13,2.23c-0.02,0.87-0.11,1.74-0.25,2.6
			c-0.11,0.88-0.27,1.75-0.5,2.6c-0.31,0.66-1.02,1.02-1.73,0.87c-0.64-0.3-1.01-0.98-0.9-1.68c0.24-0.68,0.41-1.39,0.5-2.11
			c0.13-0.75,0.2-1.52,0.21-2.28c-0.03-3.93-1.57-7.7-4.3-10.53c-1.63-1.63-3.62-2.86-5.82-3.59L27,4.24l-1.86-0.37
			c-0.62,0-1.24-0.13-2-0.13c-3.73,0.05-7.31,1.51-10,4.09c-2.78,2.53-4.47,6.04-4.71,9.79v1.11L7.2,18.86
			C5.29,18.88,3.46,19.65,2.11,21c-2.81,2.85-2.81,7.44,0,10.29c1.39,1.37,3.26,2.12,5.2,2.1c14.62,0,29.36-0.24,44,0
			c1.27-0.02,2.48-0.55,3.35-1.48c0.87-0.91,1.35-2.13,1.34-3.39c0-0.9-0.21-1.79-0.62-2.6c-0.48-0.77-1.18-1.37-2-1.73l-1.12-0.62
			l0.62-1.12c0.34-0.72,0.63-1.46,0.87-2.23c0.14-0.77,0.23-1.56,0.25-2.35c0.01-2.7-1.07-5.3-3-7.19c-1.9-1.91-4.48-2.99-7.18-3
			H42.5L41.13,8L41,6.59c-0.25-1.64-1.09-3.14-2.36-4.21c-1.2-1.14-2.8-1.77-4.46-1.73c-1.17-0.04-2.33,0.26-3.34,0.86
			C30.4,1.76,29.98,2.05,29.61,2.38L29.61,2.38z M29.61,2.38"/>
	</g>
</g>
</svg>
