<?xml version="1.0" encoding="utf-8"?>
<!-- Generator: Adobe Illustrator 25.0.0, SVG Export Plug-In . SVG Version: 6.00 Build 0)  -->
<svg version="1.1" id="Layer_1" xmlns="http://www.w3.org/2000/svg" xmlns:xlink="http://www.w3.org/1999/xlink" x="0px" y="0px"
	 viewBox="0 0 55.9 46" style="enable-background:new 0 0 55.9 46;" xml:space="preserve">
<style type="text/css">
	.st0{clip-path:url(#SVGID_2_);}
</style>
<g>
	<g>
		<g>
			<defs>
				<rect id="SVGID_1_" width="56" height="46"/>
			</defs>
			<clipPath id="SVGID_2_">
				<use xlink:href="#SVGID_1_"  style="overflow:visible;"/>
			</clipPath>
			<path class="st0" d="M20.7,39.1c0.3-0.7,1-1,1.7-0.7c0.7,0.3,1,1,0.8,1.7l-1.6,4.2c-0.2,0.6-1,1-1.6,0.8
				c-0.3-0.1-0.6-0.3-0.7-0.6c-0.1-0.3-0.1-0.7,0-1L20.7,39.1z M34.4,39.1c0.3-0.6,1-0.9,1.7-0.7c0.7,0.3,1,1,0.8,1.7l-1.6,4.2
				c-0.3,0.7-1,1-1.7,0.8c-0.6-0.2-1-1-0.8-1.6L34.4,39.1z M29.6,2.6c2.2,0.9,4.3,2.2,6,3.8c2,2.1,3.5,4.6,4.3,7.4
				c0.8,0,1.5,0.1,2.2,0.4c0.8,0.1,1.5,0.4,2.2,0.7c2.6,1.2,4.5,3.3,5.4,6c1,2.7,0.8,5.6-0.5,8.2c-0.1,0.3-0.4,0.6-0.7,0.7
				c-0.3,0.1-0.7,0.1-1-0.1c-0.6-0.4-0.8-1.1-0.6-1.7c1-1.9,1.1-4.2,0.4-6.2c-0.7-2-2.2-3.6-4.1-4.6c-0.6-0.2-1.1-0.5-1.7-0.6
				c-0.3-0.1-0.7-0.1-1-0.1c0.1,0.7,0.2,1.5,0.1,2.2c0,0.9-0.1,1.7-0.2,2.6c-0.1,0.9-0.3,1.8-0.5,2.6c-0.3,0.7-1,1-1.7,0.9
				c-0.7-0.3-1-1-0.9-1.7c0.2-0.7,0.4-1.4,0.5-2.1c0.1-0.7,0.2-1.5,0.2-2.2c0-3.9-1.6-7.7-4.3-10.5c-1.6-1.6-3.6-2.9-5.8-3.6L27,4.4
				l-1.9-0.4c-0.6,0-1.2-0.1-2-0.1c-3.7,0-7.3,1.5-10,4.1c-2.8,2.5-4.5,6-4.7,9.8v1.1l-1.2,0.1c-1.9,0-3.7,0.8-5.1,2.1
				c-2.8,2.9-2.8,7.4,0,10.3c1.4,1.4,3.2,2.1,5.2,2.1c14.6,0,29.4-0.2,44,0c1.3,0,2.5-0.6,3.3-1.5c0.8-0.9,1.3-2.1,1.3-3.4
				c0-0.9-0.2-1.8-0.6-2.6c-0.5-0.8-1.2-1.4-2-1.7l-1.1-0.6l0.6-1.1c0.3-0.7,0.6-1.5,0.9-2.2c0.1-0.8,0.2-1.6,0.2-2.4
				c0-2.7-1.1-5.3-3-7.2c-1.9-1.9-4.5-3-7.2-3h-1.3l-1.4,0.2L41,6.8c-0.2-1.6-1.1-3.1-2.4-4.2c-1.2-1.1-2.8-1.8-4.5-1.7
				c-1.2,0-2.3,0.3-3.3,0.9C30.4,2,30,2.2,29.6,2.6L29.6,2.6z"/>
		</g>
	</g>
</g>
</svg>
