<?xml version="1.0" encoding="utf-8"?>
<!-- Generator: Adobe Illustrator 25.0.0, SVG Export Plug-In . SVG Version: 6.00 Build 0)  -->
<svg version="1.1" id="Layer_1" xmlns="http://www.w3.org/2000/svg" xmlns:xlink="http://www.w3.org/1999/xlink" x="0px" y="0px"
	 viewBox="0 0 57 48.9" style="enable-background:new 0 0 57 48.9;" xml:space="preserve">
<style type="text/css">
	.st0{clip-path:url(#SVGID_2_);}
</style>
<g>
	<g>
		<defs>
			<rect id="SVGID_1_" width="57" height="49"/>
		</defs>
		<clipPath id="SVGID_2_">
			<use xlink:href="#SVGID_1_"  style="overflow:visible;"/>
		</clipPath>
		<path class="st0" d="M38.5,39.3c0.3-0.6,1-1,1.6-0.8c0.3,0.1,0.6,0.4,0.8,0.7c0.2,0.3,0.2,0.7,0.1,1l-1.6,4.2
			c-0.3,0.6-1.1,1-1.7,0.7c-0.7-0.3-1-1-0.7-1.7L38.5,39.3z M30.1,39.3c0.2-0.4,0.6-0.8,1-0.8c0.5-0.1,0.9,0.1,1.2,0.5
			c0.3,0.4,0.3,0.9,0.1,1.3l-2.8,7.8c-0.1,0.3-0.4,0.6-0.7,0.8c-0.3,0.1-0.7,0.1-1,0c-0.6-0.3-1-1-0.7-1.6L30.1,39.3z M12.1,39.3
			c0.3-0.6,1-1,1.7-0.8c0.7,0.3,1,1.1,0.8,1.7l-2.8,7.8c-0.1,0.3-0.4,0.6-0.7,0.7c-0.3,0.1-0.7,0.1-1,0c-0.6-0.3-1-1-0.7-1.6
			L12.1,39.3z M46.4,39.3c0.2-0.7,1-1,1.6-0.8c0.4,0.1,0.6,0.4,0.8,0.7c0.2,0.3,0.2,0.7,0.1,1.1l-3,7.8c-0.1,0.3-0.4,0.6-0.7,0.8
			c-0.3,0.1-0.7,0.1-1,0c-0.6-0.3-1-1-0.8-1.6L46.4,39.3z M30.6,2.8c2.2,0.9,4.3,2.2,6,3.8c2,2.1,3.5,4.6,4.3,7.4
			c0.8,0,1.5,0.1,2.2,0.4c0.8,0.1,1.5,0.4,2.2,0.8c2.6,1.2,4.6,3.4,5.5,6.1c0.9,2.7,0.8,5.6-0.5,8.2c-0.1,0.3-0.4,0.6-0.7,0.7
			c-0.3,0.1-0.7,0.1-1-0.1C48,29.7,47.7,29,48,28.3c1-1.9,1.1-4.2,0.4-6.2c-0.7-2-2.2-3.6-4.1-4.6c-0.6-0.3-1.1-0.5-1.7-0.6
			c-0.3-0.1-0.7-0.1-1-0.1c0.1,0.7,0.1,1.5,0.1,2.2c0,0.9-0.1,1.7-0.2,2.6c-0.1,0.9-0.3,1.7-0.5,2.6c-0.2,0.7-1,1.1-1.7,0.9
			c-0.7-0.2-1.1-1-0.9-1.7c0.2-0.7,0.4-1.4,0.5-2.1c0.1-0.7,0.2-1.5,0.2-2.2c0-3.9-1.6-7.7-4.3-10.5c-1.6-1.6-3.6-2.9-5.8-3.6
			L28,4.6l-1.9-0.4c-0.6,0-1.2-0.1-2-0.1c-3.7,0-7.3,1.5-10,4.1c-2.8,2.5-4.5,6-4.7,9.8v1.1l-1.2,0.1c-1.9,0-3.7,0.8-5.1,2.1
			c-2.8,2.8-2.8,7.4,0,10.3c1.4,1.4,3.3,2.1,5.2,2.1c14.6,0,29.4-0.2,44,0c1.3,0,2.5-0.6,3.4-1.5c0.9-0.9,1.3-2.1,1.3-3.3
			c0-0.9-0.2-1.8-0.6-2.6c-0.5-0.8-1.2-1.4-2-1.7L53.3,24l0.6-1.1c0.3-0.7,0.6-1.5,0.9-2.2c0.1-0.8,0.2-1.6,0.2-2.4
			c0-2.7-1.1-5.3-3-7.2c-1.9-1.9-4.5-3-7.2-3h-1.3l-1.4,0.2L42,7c-0.2-1.6-1.1-3.1-2.4-4.2C38.5,1.6,36.9,1,35.2,1
			c-1.2,0-2.3,0.3-3.3,0.9C31.4,2.1,31,2.4,30.6,2.8L30.6,2.8z M21,39.3c0.2-0.4,0.6-0.8,1-0.8c0.5-0.1,0.9,0.1,1.2,0.5
			c0.3,0.4,0.3,0.9,0.1,1.3l-1.6,4.2c-0.2,0.5-0.5,0.8-1,0.8c-0.5,0.1-0.9-0.1-1.2-0.5c-0.3-0.4-0.3-0.9-0.1-1.3L21,39.3z M21,39.3"
			/>
	</g>
</g>
</svg>
